<?xml version="1.0" standalone="no"?>
<!DOCTYPE svg PUBLIC "-//W3C//DTD SVG 1.1//EN" "http://www.w3.org/Graphics/SVG/1.1/DTD/svg11.dtd" >
<svg xmlns="http://www.w3.org/2000/svg" xmlns:xlink="http://www.w3.org/1999/xlink" version="1.1">
<metadata></metadata>
<defs>
<font id="work_sansextralight" horiz-adv-x="593" >
<font-face units-per-em="1000" ascent="760" descent="-240" />
<missing-glyph horiz-adv-x="292" />
<glyph unicode="&#xfb01;" horiz-adv-x="535" d="M256 710q-53 0 -82.5 -33.5t-29.5 -94.5v-82h182v-24h-182v-476h-28v476h-100v24h100v83q0 71 36.5 111.5t102.5 40.5q51 0 78 -29l-10 -22q-23 26 -67 26zM435 656q13 0 21 -8t8 -21t-8 -21t-21 -8q-30 0 -30 29q0 13 8.5 21t21.5 8zM421 0v500h28v-500h-28z" />
<glyph unicode="&#xfb02;" horiz-adv-x="584" d="M256 710q-53 0 -82.5 -33.5t-29.5 -94.5v-82h182v-24h-182v-476h-28v476h-100v24h100v83q0 71 36.5 111.5t102.5 40.5q51 0 78 -29l-10 -22q-23 26 -67 26zM515 15q35 0 60 12l-3 -25q-24 -12 -61 -12q-94 0 -94 120v620h28v-619q0 -51 17 -73.5t53 -22.5z" />
<glyph horiz-adv-x="0" />
<glyph horiz-adv-x="333" />
<glyph horiz-adv-x="0" />
<glyph horiz-adv-x="0" />
<glyph unicode="&#xd;" horiz-adv-x="292" />
<glyph unicode=" "  horiz-adv-x="292" />
<glyph unicode="&#x09;" horiz-adv-x="292" />
<glyph unicode="&#xa0;" horiz-adv-x="292" />
<glyph unicode="!" horiz-adv-x="199" d="M114 660v-344l-2 -139h-25l-2 139v344h29zM99 54q14 0 22.5 -8.5t8.5 -21.5t-8.5 -21.5t-22.5 -8.5q-13 0 -21.5 8.5t-8.5 21.5t8.5 21.5t21.5 8.5z" />
<glyph unicode="&#x22;" horiz-adv-x="271" d="M99 682l-5 -176h-25v176h30zM206 682l-5 -176h-26v176h31z" />
<glyph unicode="#" horiz-adv-x="633" d="M595 438h-142l-32 -207h141v-23h-145l-32 -208h-26l32 208h-191l-32 -208h-26l32 208h-135v23h139l32 207h-139v23h142l31 199h26l-31 -199h191l31 199h26l-31 -199h139v-23zM395 231l32 207h-191l-32 -207h191z" />
<glyph unicode="$" horiz-adv-x="588" d="M532 175q0 -76 -61.5 -124.5t-157.5 -50.5v-100h-24v100q-92 5 -155.5 47.5t-80.5 118.5l24 17q15 -73 71.5 -113t140.5 -44v288l-49 11q-87 18 -126.5 57t-39.5 102q0 71 59.5 122.5t155.5 53.5v100h24v-100q161 -8 208 -146l-21 -18q-41 129 -187 138v-296l54 -12 q87 -19 126 -55.5t39 -95.5zM250 351l39 -8v292q-83 -1 -134.5 -43.5t-51.5 -105.5q0 -54 33.5 -86.5t113.5 -48.5zM313 26q87 2 139 40t52 107q0 49 -34 79.5t-111 46.5l-46 10v-283z" />
<glyph unicode="%" horiz-adv-x="774" d="M182 662q70 0 106 -49t36 -122q0 -72 -36 -120t-106 -48t-106.5 48t-36.5 120q0 73 36.5 122t106.5 49zM151 0l442 660h29l-442 -660h-29zM182 639q-57 0 -86.5 -42t-29.5 -106t29 -104.5t87 -40.5t87 40.5t29 104.5t-29.5 106t-86.5 42zM593 337q70 0 106 -48.5 t36 -121.5t-36 -121t-106 -48t-107 48.5t-37 120.5q0 73 37 121.5t107 48.5zM593 314q-58 0 -87.5 -41.5t-29.5 -105.5q0 -63 29.5 -104.5t87.5 -41.5q57 0 86 41t29 105t-29 105.5t-86 41.5z" />
<glyph unicode="&#x26;" horiz-adv-x="582" d="M452 100q46 -51 75.5 -69.5t60.5 -18.5l-5 -22q-36 0 -68 19.5t-78 71.5q-73 -91 -198 -91q-85 0 -139 42t-54 112t42 117t131 96q-50 66 -67.5 100.5t-17.5 73.5q0 60 39 98t105 38q62 0 99 -33t37 -88q0 -65 -38 -106.5t-120 -88.5q4 -5 71 -94q79 -102 109 -137 q61 94 58 244l25 -2q2 -163 -67 -262zM277 643q-54 0 -85 -30.5t-31 -81.5q0 -34 14.5 -63.5t65.5 -97.5q78 45 112.5 80.5t34.5 93.5q0 45 -30 72t-81 27zM238 14q116 0 183 85q-53 63 -112 141l-76 98q-84 -47 -122 -87.5t-38 -104.5q0 -61 46.5 -96.5t118.5 -35.5z" />
<glyph unicode="'" horiz-adv-x="165" d="M99 682l-5 -176h-25v176h30z" />
<glyph unicode="(" horiz-adv-x="271" d="M243 742l15 -17q-176 -149 -176 -441q0 -291 176 -441l-15 -17q-188 160 -188 458t188 458z" />
<glyph unicode=")" horiz-adv-x="271" d="M28 -174l-15 17q176 149 176 441q0 293 -176 441l15 17q189 -161 189 -458t-189 -458z" />
<glyph unicode="*" horiz-adv-x="522" d="M276 505l47 -59l77 -107l-20 -15l-78 106l-41 64l-42 -64l-77 -106l-21 15l78 107l47 59l-74 20l-125 41l8 24l125 -40l71 -27l-3 75v132h26v-132l-4 -75l71 27l126 40l7 -24l-125 -41z" />
<glyph unicode="+" horiz-adv-x="604" d="M536 329v-26h-220v-226h-27v226h-221v26h221v220h27v-220h220z" />
<glyph unicode="," horiz-adv-x="186" d="M94 54q20 0 30.5 -15t10.5 -40q0 -34 -18 -65t-50 -48l-18 14q32 13 51.5 45.5t11.5 59.5h-2q-6 -11 -19 -11q-12 0 -20 8.5t-8 21.5q0 12 9 21t22 9z" />
<glyph unicode="-" horiz-adv-x="434" d="M362 283v-29h-290v29h290z" />
<glyph unicode="." horiz-adv-x="186" d="M93 54q13 0 21.5 -8t8.5 -22t-8.5 -22t-21.5 -8t-21.5 8t-8.5 22t8.5 22t21.5 8z" />
<glyph unicode="/" horiz-adv-x="366" d="M331 730l-269 -800h-28l269 800h28z" />
<glyph unicode="0" horiz-adv-x="596" d="M298 -10q-114 0 -175.5 88t-61.5 252t61.5 252t175.5 88t175.5 -88t61.5 -252t-61.5 -252t-175.5 -88zM298 15q101 0 155 81t54 234t-54 234t-155 81t-154.5 -81t-53.5 -234t53.5 -234t154.5 -81z" />
<glyph unicode="1" horiz-adv-x="330" d="M208 0v552v65q-59 -88 -174 -123l-8 24q55 19 107 57t77 85h26v-660h-28z" />
<glyph unicode="2" horiz-adv-x="543" d="M58 0v24q76 62 113.5 93.5t91.5 79t79.5 76.5t53 66t37.5 69t10 65q0 79 -48 125.5t-131 46.5q-84 0 -135 -52t-56 -140l-25 13q6 93 63.5 148.5t152.5 55.5q96 0 151.5 -53t55.5 -144q0 -42 -17 -83.5t-43.5 -78.5t-78.5 -87t-100 -90.5t-131 -107.5v-1h41h355v-25h-439 z" />
<glyph unicode="3" horiz-adv-x="525" d="M268 -10q-89 0 -150.5 41.5t-78.5 110.5l26 15q15 -65 68 -103.5t135 -38.5q83 0 134.5 44t51.5 121q0 69 -44.5 104.5t-118.5 35.5q-45 0 -58 -1v27q14 -1 52 -1q71 0 111.5 39.5t40.5 109.5t-44.5 110.5t-120.5 40.5q-70 0 -119 -33t-68 -91l-26 13q23 63 79.5 99.5 t134.5 36.5q89 0 140.5 -47t51.5 -127q0 -64 -34 -108.5t-93 -54.5v-1q65 -4 104.5 -46t39.5 -109q0 -83 -60 -135t-154 -52z" />
<glyph unicode="4" horiz-adv-x="561" d="M371 0v199h-332v22l323 439h37v-437h135v-24h-135v-199h-28zM70 223h301v342q0 46 1 69h-2q-19 -29 -47 -69z" />
<glyph unicode="5" horiz-adv-x="544" d="M277 -10q-189 0 -225 158l26 12q27 -145 200 -145q82 0 134 51t52 132q-1 81 -50.5 131t-130.5 50q-125 0 -185 -81l-25 2l32 360h361v-25h-338l-26 -290l-2 -18h2q57 77 184 77q91 0 148.5 -57t57.5 -148q0 -93 -60 -151t-155 -58z" />
<glyph unicode="6" horiz-adv-x="557" d="M311 670q135 0 180 -124l-26 -12q-15 51 -54 81t-101 30q-59 0 -103.5 -27.5t-69.5 -75t-37.5 -104t-12.5 -121.5q0 -50 8 -104h3q5 88 63 137t137 49q97 0 152.5 -56t55.5 -149t-57.5 -148.5t-154.5 -55.5q-115 0 -174 87.5t-59 252.5t69 252.5t181 87.5zM297 374 q-80 0 -131.5 -54.5t-51.5 -125.5q0 -76 50 -127t129 -51q85 0 134.5 49t49.5 131q0 79 -49 128.5t-131 49.5z" />
<glyph unicode="7" horiz-adv-x="507" d="M25 660h468v-25q-237 -254 -262 -635h-29q27 386 261 635h-438v25z" />
<glyph unicode="8" horiz-adv-x="572" d="M286 670q91 0 145.5 -45t54.5 -119q0 -60 -35 -101.5t-98 -56.5v-1q74 -15 118 -62.5t44 -113.5q0 -80 -64 -130.5t-165 -50.5t-165 50.5t-64 130.5q0 67 44.5 114.5t118.5 61.5v1q-63 14 -98.5 55.5t-35.5 102.5q0 74 54.5 119t145.5 45zM286 644q-78 0 -125 -38 t-47 -102q0 -65 47 -104.5t125 -39.5t125 39.5t47 104.5q0 64 -47 102t-125 38zM286 15q89 0 144.5 43.5t55.5 113.5q0 71 -55.5 116t-144.5 45t-144.5 -45t-55.5 -116q0 -70 55.5 -113.5t144.5 -43.5z" />
<glyph unicode="9" horiz-adv-x="576" d="M276 670q118 0 178.5 -88.5t60.5 -251.5q0 -166 -64.5 -253t-173.5 -87q-81 0 -138.5 38.5t-74.5 103.5l26 13q16 -60 63 -95t124 -35q58 0 100.5 27t66 74t34.5 102t11 120q0 55 -10 113h-2q0 -86 -62.5 -138t-142.5 -52q-97 0 -155 55.5t-58 149.5q1 93 59.5 148.5 t157.5 55.5zM277 644q-87 0 -137.5 -49t-51.5 -131q-1 -80 50 -128.5t136 -48.5q81 0 134 53t53 131q0 72 -53.5 122.5t-130.5 50.5z" />
<glyph unicode=":" horiz-adv-x="212" d="M106 502q14 0 22 -8t8 -22t-8 -22t-22 -8t-22 8t-8 22t8 22t22 8zM106 54q14 0 22 -8t8 -22t-8 -22t-22 -8t-22 8t-8 22t8 22t22 8z" />
<glyph unicode=";" horiz-adv-x="212" d="M106 502q14 0 22 -8t8 -22t-8 -22t-22 -8t-22 8t-8 22t8 22t22 8zM105 54q19 0 30 -15t11 -40q0 -34 -18 -65t-51 -48l-17 14q32 13 51 45.5t12 59.5h-3q-5 -11 -19 -11q-11 0 -19 8.5t-8 21.5q0 12 9 21t22 9z" />
<glyph unicode="&#x3c;" horiz-adv-x="604" d="M536 52l-449 231v33l449 231v-30l-425 -217l425 -217v-31z" />
<glyph unicode="=" horiz-adv-x="604" d="M521 426v-26h-438v26h438zM521 222v-25h-438v25h438z" />
<glyph unicode="&#x3e;" horiz-adv-x="604" d="M68 547l449 -231v-33l-449 -231v30l425 217l-425 217v31z" />
<glyph unicode="?" horiz-adv-x="486" d="M248 670q87 0 141 -45.5t54 -123.5q0 -84 -48 -136t-148 -78v-126h-28v142q109 31 152.5 75t43.5 121q0 68 -46 107t-122 39q-169 0 -191 -157l-24 13q29 169 216 169zM233 54q13 0 21.5 -8.5t8.5 -21.5t-8.5 -21.5t-21.5 -8.5t-21.5 8t-8.5 22t8.5 22t21.5 8z" />
<glyph unicode="@" horiz-adv-x="909" d="M476 -176q-188 0 -299.5 107.5t-111.5 292.5q0 197 120.5 312.5t295.5 115.5q91 0 164.5 -31.5t118.5 -84.5t68.5 -119t23.5 -138q0 -117 -52 -198t-128 -81q-47 0 -70 31.5t-18 78.5q-52 -100 -167 -100q-81 0 -128.5 56.5t-47.5 144.5q0 111 63.5 187t158.5 76 q74 0 118 -46.5t45 -126.5l38 163h27l-78 -330q-5 -19 -5 -40q0 -38 19.5 -55t47.5 -17q62 0 107.5 74.5t45.5 180.5q0 69 -22 131t-64 112t-110.5 79.5t-153.5 29.5q-107 0 -194.5 -46t-142 -139.5t-54.5 -219.5q0 -175 105.5 -276t279.5 -101q72 0 136 21.5t103 58.5 l15 -20q-45 -38 -112 -60.5t-142 -22.5zM423 32q85 0 138.5 69t53.5 176q0 87 -41.5 129.5t-106.5 42.5q-82 0 -139 -67.5t-57 -170.5q0 -81 43 -130t109 -49z" />
<glyph unicode="A" horiz-adv-x="600" d="M556 0l-92 224h-329l-91 -224h-29l269 660h32l269 -660h-29zM146 250h308l-134 327l-20 54l-20 -53z" />
<glyph unicode="B" horiz-adv-x="617" d="M101 0v660h232q207 0 207 -170q0 -129 -128 -156v-1q69 -10 107.5 -52t38.5 -109q0 -84 -57.5 -128t-167.5 -44h-232zM129 346h204q178 0 178 143q0 146 -178 146h-204v-289zM129 25h208q192 0 192 148q0 147 -192 147h-208v-295z" />
<glyph unicode="C" horiz-adv-x="656" d="M616 166q-26 -84 -95 -130t-167 -46q-134 0 -215 92t-81 248t80.5 248t214.5 92q205 0 256 -170l-27 -13q-48 158 -228 158q-121 0 -194 -85t-73 -230t73 -230t194 -85q89 0 150.5 42t83.5 119z" />
<glyph unicode="D" horiz-adv-x="690" d="M306 660q159 0 242.5 -82t83.5 -240q0 -166 -83.5 -252t-242.5 -86h-205v660h205zM307 25q145 0 220.5 80t75.5 233q0 145 -75.5 221t-220.5 76h-178v-610h178z" />
<glyph unicode="E" d="M101 0v660h442v-25h-414v-286h330v-25h-330v-299h430v-25h-458z" />
<glyph unicode="F" horiz-adv-x="565" d="M542 635h-413v-286h330v-25h-330v-324h-28v660h441v-25z" />
<glyph unicode="G" horiz-adv-x="685" d="M355 315h262v-315h-25l-1 144q-25 -72 -84.5 -113t-147.5 -41q-139 0 -220 91.5t-81 248.5q0 156 81.5 248t215.5 92q202 0 257 -170l-25 -13q-50 158 -232 158q-121 0 -194.5 -85.5t-73.5 -229.5q0 -146 72.5 -230.5t199.5 -84.5q50 0 91 15t66.5 38.5t42.5 54t24 60.5 t7 59v48h-235v25z" />
<glyph unicode="H" horiz-adv-x="703" d="M574 660h28v-660h-28v324h-445v-324h-28v660h28v-311h445v311z" />
<glyph unicode="I" horiz-adv-x="229" d="M129 660v-660h-28v660h28z" />
<glyph unicode="J" horiz-adv-x="511" d="M417 660v-448q0 -104 -51.5 -163t-148.5 -59q-100 0 -148.5 58t-33.5 155l27 10q-13 -96 27 -147t128 -51q86 0 129 53t43 148v444h28z" />
<glyph unicode="K" horiz-adv-x="576" d="M525 0l-254 374l-142 -144v-230h-28v660h28v-391l384 391h38l-259 -265l268 -395h-35z" />
<glyph unicode="L" horiz-adv-x="553" d="M129 25h409v-25h-437v660h28v-635z" />
<glyph unicode="M" horiz-adv-x="799" d="M698 660v-660h-27v549l2 79l-259 -628h-29l-259 628h-1l3 -79v-549h-27v660h40l239 -572l19 -55h1l19 54l239 573h40z" />
<glyph unicode="N" horiz-adv-x="702" d="M601 660v-660h-37l-403 574l-34 55h-1l2 -65v-564h-27v660h36l404 -574l34 -56l-1 66v564h27z" />
<glyph unicode="O" horiz-adv-x="720" d="M360 670q139 0 220.5 -91.5t81.5 -248.5t-81.5 -248.5t-220.5 -91.5t-220.5 91.5t-81.5 248.5t81.5 248.5t220.5 91.5zM360 645q-126 0 -199.5 -85t-73.5 -230t73.5 -230t199.5 -85t199.5 85t73.5 230t-73.5 230t-199.5 85z" />
<glyph unicode="P" horiz-adv-x="570" d="M310 660q105 0 165 -50t60 -138t-60 -137.5t-165 -49.5h-181v-285h-28v660h209zM308 310q94 0 146 42.5t52 119.5t-52 120t-146 43h-179v-325h179z" />
<glyph unicode="Q" horiz-adv-x="720" d="M536 -168q71 0 107 37l11 -25q-42 -39 -118 -39q-78 0 -128 47.5t-55 137.5q-136 3 -215.5 94.5t-79.5 245.5q0 157 81.5 248.5t220.5 91.5t220.5 -91.5t81.5 -248.5q0 -151 -76.5 -242.5t-207.5 -97.5q5 -79 47.5 -118.5t110.5 -39.5zM87 330q0 -145 73.5 -230 t199.5 -85t199.5 85t73.5 230t-73.5 230t-199.5 85t-199.5 -85t-73.5 -230z" />
<glyph unicode="R" horiz-adv-x="621" d="M584 0h-32l-197 296h-13l-4 -1h-209v-295h-28v660h241q98 0 154.5 -48.5t56.5 -133.5q0 -75 -44 -121.5t-122 -57.5zM129 321h213q87 0 135 41t48 116q0 74 -48 115.5t-135 41.5h-213v-314z" />
<glyph unicode="S" horiz-adv-x="603" d="M300 670q192 0 243 -151l-23 -17q-45 143 -222 143q-93 0 -149 -44t-56 -110q0 -55 37 -88t125 -52l120 -25q96 -21 137.5 -57.5t41.5 -98.5q0 -81 -67 -130.5t-175 -49.5q-107 0 -178.5 43.5t-91.5 126.5l26 18q15 -80 81 -121.5t164 -41.5q93 0 153 40.5t60 112.5 q0 50 -37 81t-122 49l-122 27q-97 20 -139 59t-42 105q0 75 64.5 128t171.5 53z" />
<glyph unicode="T" horiz-adv-x="555" d="M540 660v-25h-248v-635h-28v635h-249v25h525z" />
<glyph unicode="U" horiz-adv-x="672" d="M587 660v-423q0 -119 -66 -183t-185 -64t-185 64t-66 183v423h28v-419q0 -109 58 -167.5t165 -58.5t165 58.5t58 167.5v419h28z" />
<glyph unicode="V" horiz-adv-x="590" d="M570 660l-258 -660h-35l-258 660h30l216 -551l30 -81l30 81l216 551h29z" />
<glyph unicode="W" horiz-adv-x="919" d="M239 0l-214 660h30l203 -633l185 633h34l185 -634l203 634h28l-213 -660h-36l-144 488l-40 139h-1l-39 -139l-145 -488h-36z" />
<glyph unicode="X" horiz-adv-x="540" d="M520 0h-33l-217 316l-221 -316h-35l240 341l-219 319h34l202 -295l206 295h35l-224 -320z" />
<glyph unicode="Y" horiz-adv-x="523" d="M508 660l-232 -404v-256h-28v256l-233 404h33l129 -226l85 -148l213 374h33z" />
<glyph unicode="Z" horiz-adv-x="567" d="M66 25h471v-25h-503v25l452 610h-444v25h476v-25z" />
<glyph unicode="[" horiz-adv-x="283" d="M268 706h-164v-850h164v-24h-190v898h190v-24z" />
<glyph unicode="\" horiz-adv-x="366" d="M35 730h27l270 -800h-28z" />
<glyph unicode="]" horiz-adv-x="283" d="M15 -144h164v850h-164v24h190v-898h-190v24z" />
<glyph unicode="^" horiz-adv-x="538" d="M35 355l219 375h30l219 -375h-31l-203 349l-203 -349h-31z" />
<glyph unicode="_" horiz-adv-x="507" d="M507 -97v-25h-507v25h507z" />
<glyph unicode="`" horiz-adv-x="541" d="M245 734l83 -151h-24l-90 151h31z" />
<glyph unicode="a" horiz-adv-x="526" d="M486 16q22 0 35 8l-2 -23q-15 -9 -39 -9q-33 0 -55.5 21t-21.5 73v12q-21 -52 -75 -80t-116 -28q-75 0 -118 32.5t-43 92.5q0 106 144 134l208 41v44q0 71 -39.5 111.5t-111.5 40.5q-131 0 -172 -114l-22 15q45 123 195 123q84 0 131 -45t47 -128v-255q0 -66 55 -66z M216 15q43 0 84 15t72 51.5t31 87.5v97l-192 -38q-131 -25 -131 -111q0 -49 35 -75.5t101 -26.5z" />
<glyph unicode="b" d="M314 510q102 0 164 -69.5t62 -190.5t-62 -190.5t-164 -69.5q-73 0 -127 39.5t-73 107.5l-1 -137h-26v730h28v-363q21 67 74.5 105t124.5 38zM310 15q93 0 147.5 62.5t54.5 172.5t-54.5 173t-147.5 63q-86 0 -140.5 -64.5t-54.5 -171.5t54.5 -171t140.5 -64z" />
<glyph unicode="c" horiz-adv-x="531" d="M285 510q75 0 127 -35.5t71 -100.5l-25 -13q-17 60 -62 92.5t-112 32.5q-90 0 -147 -64t-57 -172q0 -109 56 -172t146 -63q69 0 119.5 35.5t60.5 95.5l26 -9q-16 -67 -72.5 -107t-133.5 -40q-102 0 -166 70t-64 190q0 119 65 189.5t168 70.5z" />
<glyph unicode="d" d="M478 730h28v-730h-26l-1 140q-18 -71 -71.5 -110.5t-125.5 -39.5q-103 0 -166 69.5t-63 190.5t63.5 190.5t166.5 69.5q72 0 124 -38.5t71 -107.5v366zM285 15q86 0 139.5 64t53.5 172q0 107 -53.5 171t-138.5 64q-94 0 -149.5 -63t-55.5 -173q0 -109 55.5 -172t148.5 -63 z" />
<glyph unicode="e" horiz-adv-x="542" d="M492 266q0 -12 -1 -16h-411q0 -108 57.5 -171.5t148.5 -63.5q60 0 107 27.5t72 77.5l22 -12q-27 -55 -80 -86.5t-120 -31.5q-103 0 -169 70t-66 190q0 119 64 189.5t163 70.5q100 0 156.5 -65.5t56.5 -178.5zM279 486q-82 0 -136.5 -57t-61.5 -154h384q-1 96 -50 153.5 t-136 57.5z" />
<glyph unicode="f" horiz-adv-x="334" d="M144 582v-82h182v-24h-182v-476h-28v476h-100v24h100v83q0 71 36.5 111.5t102.5 40.5q51 0 78 -29l-10 -22q-23 26 -67 26q-53 0 -82.5 -33.5t-29.5 -94.5z" />
<glyph unicode="g" horiz-adv-x="503" d="M333 42q75 0 119 -30.5t44 -81.5q0 -64 -64.5 -104.5t-166.5 -40.5q-107 0 -169 37t-62 97q0 42 30.5 72t81.5 38q-72 23 -72 86q0 36 24.5 60.5t65.5 32.5q-49 18 -76.5 55t-27.5 88q0 72 55 115.5t144 43.5q69 0 120 -28q4 51 35 80.5t81 29.5l8 -24q-48 0 -75 -26 t-30 -72q59 -45 59 -119q0 -72 -54.5 -115.5t-143.5 -43.5q-27 0 -55 5q-46 -2 -74.5 -23t-28.5 -55q0 -37 29 -57t75 -20h128zM88 351q0 -61 47 -98.5t124 -37.5q76 0 122.5 37.5t46.5 98.5t-46.5 98t-122.5 37q-77 0 -124 -37t-47 -98zM267 -191q88 0 145 33t57 85 q0 42 -37.5 66.5t-103.5 24.5h-133q-59 0 -96.5 -26.5t-37.5 -68.5q0 -51 55.5 -82.5t150.5 -31.5z" />
<glyph unicode="h" horiz-adv-x="582" d="M87 0v730h28v-351q19 59 72.5 95.5t126.5 36.5q87 0 137.5 -48t50.5 -135v-327h-28v320q0 79 -44 122t-120 43q-82 0 -138.5 -55t-56.5 -136v-295h-28z" />
<glyph unicode="i" horiz-adv-x="201" d="M101 598q-30 0 -30 29q0 13 8.5 21t21.5 8t21 -8t8 -21t-8 -21t-21 -8zM115 500v-500h-28v500h28z" />
<glyph unicode="j" horiz-adv-x="201" d="M101 598q-30 0 -30 29q0 13 8.5 21t21.5 8t21 -8t8 -21t-8 -21t-21 -8zM115 500v-562q0 -72 -38 -112.5t-98 -40.5q-48 0 -77 24l8 26q24 -24 69 -24q49 0 78.5 34.5t29.5 94.5v560h28z" />
<glyph unicode="k" horiz-adv-x="498" d="M449 0l-208 278l-126 -120v-158h-28v730h28v-535l324 305h39l-216 -202l222 -298h-35z" />
<glyph unicode="l" horiz-adv-x="250" d="M111 730v-619q0 -51 17 -73.5t53 -22.5q35 0 60 12l-3 -25q-24 -12 -61 -12q-94 0 -94 120v620h28z" />
<glyph unicode="m" horiz-adv-x="965" d="M87 0v500h26l1 -123q19 59 73 96t126 37q73 0 121 -36.5t60 -102.5q17 62 73.5 101.5t130.5 39.5q85 0 136 -48t51 -135v-327h-28v324q0 77 -44 119t-119 42q-82 0 -138 -55t-56 -134v-298h-28v324q0 77 -44 119.5t-119 42.5q-81 0 -137.5 -55.5t-56.5 -135.5v-295h-28z " />
<glyph unicode="n" horiz-adv-x="582" d="M314 510q87 0 137.5 -48t50.5 -135v-327h-28v320q0 80 -44 123t-120 43q-82 0 -138.5 -55.5t-56.5 -136.5v-294h-28v500h26l1 -120q20 59 74 94.5t126 35.5z" />
<glyph unicode="o" horiz-adv-x="575" d="M288 510q105 0 170 -70t65 -190t-65 -190t-170 -70q-106 0 -171 70t-65 190t65 190t171 70zM288 486q-93 0 -150.5 -63.5t-57.5 -172.5t57.5 -172.5t150.5 -63.5t150 63.5t57 172.5t-57 172.5t-150 63.5z" />
<glyph unicode="p" d="M314 510q102 0 164 -69.5t62 -190.5t-62 -190.5t-164 -69.5q-72 0 -125 38t-74 105v-343h-28v710h26l1 -137q19 68 73 107.5t127 39.5zM310 15q93 0 147.5 62.5t54.5 172.5t-54.5 173t-147.5 63q-85 0 -140 -64.5t-55 -171.5t54.5 -171t140.5 -64z" />
<glyph unicode="q" d="M480 500h26v-710h-28v345q-20 -69 -72.5 -107t-123.5 -38q-103 0 -166 69.5t-63 190.5t63.5 190.5t166.5 69.5q72 0 124.5 -39t71.5 -108zM285 15q86 0 139.5 64t53.5 172q0 107 -53.5 171t-138.5 64q-94 0 -149.5 -63t-55.5 -173q0 -109 55.5 -172t148.5 -63z" />
<glyph unicode="r" horiz-adv-x="355" d="M87 0v500h25l2 -121q18 58 61.5 94.5t101.5 36.5q45 0 68 -21l-10 -24q-22 20 -63 20q-65 0 -111 -59t-46 -139v-287h-28z" />
<glyph unicode="s" horiz-adv-x="488" d="M246 -10q-79 0 -134.5 31t-73.5 90l25 15q15 -54 64 -82.5t123 -28.5t118 30t44 81q0 37 -24 60.5t-82 35.5l-115 25q-130 28 -130 124q0 59 53 99t134 40q156 0 188 -122l-24 -15q-26 113 -164 113q-69 0 -114 -31.5t-45 -79.5q0 -77 105 -101l118 -26 q69 -15 98.5 -44.5t29.5 -75.5q0 -64 -52.5 -101t-141.5 -37z" />
<glyph unicode="t" horiz-adv-x="346" d="M329 52l12 -23q-39 -39 -102 -39q-124 0 -124 136v350h-100v24h100v128l28 8v-136h191v-24h-191v-348q0 -113 98 -113q54 0 88 37z" />
<glyph unicode="u" horiz-adv-x="574" d="M258 -10q-83 0 -130 46t-47 132v332h28v-326q0 -78 40 -118.5t115 -40.5q91 0 143 58.5t52 128.5v298h28v-500h-26l-1 122q-19 -60 -73 -96t-129 -36z" />
<glyph unicode="v" horiz-adv-x="488" d="M438 500h30l-209 -500h-29l-210 500h32l193 -469z" />
<glyph unicode="w" horiz-adv-x="790" d="M731 500h30l-167 -500h-28l-171 462l-171 -462h-28l-167 500h30l151 -464l170 464h29l170 -464z" />
<glyph unicode="x" horiz-adv-x="483" d="M469 0h-38l-191 237l-184 -237h-35l202 259l-194 241h38l175 -218l168 218h35l-186 -239z" />
<glyph unicode="y" horiz-adv-x="488" d="M467 500l-246 -598q-26 -65 -58 -91t-81 -26q-60 0 -85 33l11 23q24 -32 74 -32q38 0 65 22t49 77l38 91l-55 128l-158 373h32l174 -419l20 -50l21 53l169 416h30z" />
<glyph unicode="z" horiz-adv-x="484" d="M42 0v23l318 401l45 52h-369v24h401v-23l-303 -385l-58 -68h375v-24h-409z" />
<glyph unicode="{" horiz-adv-x="276" d="M251 -174q-60 0 -93 30.5t-33 84.5v236q0 47 -29 71.5t-84 24.5v24q113 0 113 95v236q0 54 33 84t93 30v-23q-47 0 -73 -24t-26 -66v-238q0 -84 -84 -106q40 -11 62 -38.5t22 -68.5v-238q0 -43 26 -66.5t73 -23.5v-24z" />
<glyph unicode="|" horiz-adv-x="181" d="M103 730v-898h-25v898h25z" />
<glyph unicode="}" horiz-adv-x="276" d="M25 742q61 0 93.5 -30t32.5 -84v-236q0 -46 29.5 -71t84.5 -25v-24q-55 0 -84.5 -25t-29.5 -71v-235q0 -55 -32.5 -85t-93.5 -30v24q47 0 73 23.5t26 66.5v237q0 41 22 68.5t63 37.5q-85 24 -85 107v239q0 42 -26 66t-73 24v23z" />
<glyph unicode="~" horiz-adv-x="490" d="M447 393q-12 -104 -101 -104q-46 0 -104.5 37t-95.5 37q-62 0 -76 -79h-27q14 104 102 104q46 0 104.5 -37t94.5 -37q62 0 76 79h27z" />
<glyph unicode="&#xa1;" horiz-adv-x="191" d="M95 446q-13 0 -21.5 8.5t-8.5 21.5t8.5 21.5t21.5 8.5q14 0 22.5 -8.5t8.5 -21.5t-8.5 -21.5t-22.5 -8.5zM81 -160v345l2 138h25l2 -138v-345h-29z" />
<glyph unicode="&#xa2;" horiz-adv-x="543" d="M493 137q-15 -66 -69.5 -105.5t-129.5 -41.5v-90h-24v91q-100 5 -156 74t-56 185q0 115 56.5 183.5t155.5 75.5v91h24v-90q73 -1 124.5 -36.5t70.5 -99.5l-26 -13q-16 60 -59.5 92t-109.5 33v-472q66 2 114.5 37.5t59.5 94.5zM85 250q0 -106 48.5 -167.5t136.5 -67.5v470 q-87 -7 -136 -68.5t-49 -166.5z" />
<glyph unicode="&#xa3;" horiz-adv-x="582" d="M522 127h24q0 -66 -33.5 -99t-89.5 -33q-35 0 -68 12.5t-47.5 22t-45.5 33.5q-38 -68 -124 -68q-45 0 -70.5 19t-25.5 51t27 52t70 20q59 0 113 -38q6 23 6 49q0 63 -47 150h-120v24h106q-31 54 -42.5 88.5t-11.5 75.5q0 83 54 133.5t141 50.5q75 0 122 -39t56 -108 l-25 -12q-8 61 -48.5 97.5t-104.5 36.5q-77 0 -122.5 -43t-45.5 -116q0 -37 11.5 -69t42.5 -90l3 -5h224v-24h-212q43 -88 43 -147q0 -35 -11 -66q2 -1 13.5 -10.5t14 -11.5t13.5 -9.5t15.5 -10t15 -8t17.5 -7.5l17.5 -5t21 -4t22.5 -1q99 0 101 109zM140 16q76 0 104 60 q-53 39 -106 39q-31 0 -50.5 -14t-19.5 -36t19.5 -35.5t52.5 -13.5z" />
<glyph unicode="&#xa4;" horiz-adv-x="614" d="M489 332q0 -74 -40 -127l101 -100l-18 -19l-101 101q-48 -45 -124 -45q-75 0 -125 44l-99 -100l-19 20l100 101q-40 49 -40 125q0 73 39 123l-99 99l19 19l98 -98q48 45 126 45q76 0 126 -45l99 98l18 -18l-99 -101q38 -49 38 -122zM307 167q70 0 112 45t42 120 q0 74 -42 118.5t-112 44.5q-71 0 -113 -44.5t-42 -118.5q0 -75 42.5 -120t112.5 -45z" />
<glyph unicode="&#xa5;" horiz-adv-x="578" d="M276 0v128h-204v22h204v102h-204v23h157l38 -1l-225 386h33l193 -340l20 -39h2l20 39l193 340h33l-226 -386l39 1h157v-23h-204v-102h204v-22h-204v-128h-26z" />
<glyph unicode="&#xa6;" horiz-adv-x="181" d="M103 730v-365h-25v365h25zM103 197v-365h-25v365h25z" />
<glyph unicode="&#xa7;" horiz-adv-x="548" d="M515 267q0 -46 -33.5 -78.5t-89.5 -44.5q71 -34 71 -110q0 -62 -50.5 -103t-138.5 -41q-146 0 -184 88l22 17q30 -81 163 -81q75 0 118 33t43 85q0 47 -31 73t-97 38l-98 19q-92 19 -128 48.5t-36 83.5q0 46 35 78t91 44q-40 18 -57 44t-17 67q0 61 50 102t137 41 q143 0 182 -88l-22 -16q-31 80 -160 80q-75 0 -117 -32.5t-42 -84.5q0 -48 29 -73t106 -41l103 -21q80 -16 115.5 -45.5t35.5 -81.5zM365 155q53 10 88 37.5t35 71.5q0 43 -28.5 66.5t-98.5 37.5l-104 22q-35 8 -60 16q-52 -10 -88 -37.5t-36 -71.5t31.5 -68.5t113.5 -40.5 l97 -20q33 -7 50 -13z" />
<glyph unicode="&#xa8;" horiz-adv-x="541" d="M177 652q13 0 21 -7.5t8 -20.5t-8 -21t-21 -8t-20.5 8t-7.5 21q0 28 28 28zM363 652q13 0 21 -7.5t8 -20.5t-8 -21t-21 -8t-20.5 8t-7.5 21q0 28 28 28z" />
<glyph unicode="&#xa9;" horiz-adv-x="791" d="M395 -10q-148 0 -240.5 96.5t-92.5 243.5t92.5 243.5t240.5 96.5t241 -96.5t93 -243.5t-93 -243.5t-241 -96.5zM395 14q136 0 222 90t86 226t-86 226t-222 90t-221.5 -90t-85.5 -226t85.5 -226t221.5 -90zM406 143q-85 0 -133.5 49t-48.5 136t48.5 136t133.5 49 q116 0 151 -99l-22 -11q-29 87 -130 87q-73 0 -114 -43t-41 -119t41 -119t114 -43q50 0 86.5 25.5t47.5 69.5l23 -9q-15 -50 -56.5 -79.5t-99.5 -29.5z" />
<glyph unicode="&#xaa;" horiz-adv-x="377" d="M337 347q15 0 25 5l-1 -19q-14 -7 -29 -7q-52 0 -52 62v9q-16 -35 -53 -53t-78 -18q-46 0 -74 23t-28 62t25 61t80 32l127 22v28q0 42 -25 66t-71 24q-88 0 -114 -71l-20 10q13 39 48 60.5t86 21.5q57 0 89 -28t32 -81v-168q0 -41 33 -41zM151 348q48 0 88 26t40 80v52 l-117 -21q-48 -8 -69 -26t-21 -48q0 -29 21 -46t58 -17zM47 219v21h301v-21h-301z" />
<glyph unicode="&#xab;" horiz-adv-x="400" d="M221 461l-142 -196l142 -196h-33l-141 196l141 196h33zM350 461l-142 -196l142 -196h-33l-141 196l141 196h33z" />
<glyph unicode="&#xac;" horiz-adv-x="604" d="M74 329h456v-161h-28v135h-428v26z" />
<glyph unicode="&#xad;" horiz-adv-x="434" d="M362 283v-29h-290v29h290z" />
<glyph unicode="&#xae;" horiz-adv-x="791" d="M395 670q148 0 241 -96.5t93 -243.5t-93 -243.5t-241 -96.5t-240.5 96.5t-92.5 243.5t92.5 243.5t240.5 96.5zM395 14q136 0 222 90t86 226t-86 226t-222 90t-221.5 -90t-85.5 -226t85.5 -226t221.5 -90zM551 409q0 -92 -99 -103l106 -163h-29l-104 162h-126v-162h-25 v370h154q123 0 123 -104zM299 492v-167h129q99 0 99 84q0 83 -99 83h-129z" />
<glyph unicode="&#xaf;" horiz-adv-x="541" d="M418 627v-24h-295v24h295z" />
<glyph unicode="&#xb0;" horiz-adv-x="387" d="M193 389q-63 0 -101.5 39t-38.5 101q0 63 38.5 102t101.5 39t102 -39t39 -102t-39 -101.5t-102 -38.5zM193 412q52 0 83.5 32.5t31.5 84.5t-31.5 84.5t-83.5 32.5q-51 0 -82.5 -32.5t-31.5 -84.5t31.5 -84.5t82.5 -32.5z" />
<glyph unicode="&#xb1;" horiz-adv-x="604" d="M316 385h214v-25h-214v-245h-27v245h-215v25h215v240h27v-240zM74 0v25h456v-25h-456z" />
<glyph unicode="&#xb2;" horiz-adv-x="352" d="M46 333v21q67 56 109 92q117 96 117 169q0 45 -27 71.5t-74 26.5q-49 0 -78 -29.5t-31 -79.5l-24 7q5 56 40 90t93 34q59 0 93.5 -33t34.5 -87q0 -82 -127 -184l-92 -75v-1h34h199v-22h-267z" />
<glyph unicode="&#xb3;" horiz-adv-x="333" d="M157 735q56 0 88 -29.5t32 -76.5q0 -75 -74 -95v-2q37 -4 60.5 -30t23.5 -64q0 -50 -36.5 -80.5t-93.5 -30.5q-106 0 -133 92l23 12q18 -82 111 -82q46 0 74 24t28 66q0 84 -105 84q-10 0 -17 -1v21q8 -1 18 -1q42 0 68 23t26 62q0 40 -24.5 63t-67.5 23q-40 0 -65.5 -19 t-32.5 -52l-24 10q11 38 43.5 60.5t77.5 22.5z" />
<glyph unicode="&#xb4;" horiz-adv-x="600" d="M327 734h31l-90 -151h-25z" />
<glyph unicode="&#xb5;" horiz-adv-x="580" d="M87 -210v710h28v-326q0 -76 42 -117.5t113 -41.5q83 0 139 54.5t56 136.5v294h28v-500h-25l-1 123q-19 -59 -73.5 -96t-126.5 -37q-53 0 -93 24.5t-59 69.5v-294h-28z" />
<glyph unicode="&#xb6;" horiz-adv-x="542" d="M270 -100v342q-107 0 -172.5 57.5t-65.5 151.5q0 95 65 152t173 57h190v-760h-27v736h-137v-736h-26zM270 266v370q-96 0 -153.5 -50.5t-57.5 -134.5t57.5 -134.5t153.5 -50.5z" />
<glyph unicode="&#xb7;" horiz-adv-x="198" d="M99 389q13 0 21.5 -8.5t8.5 -21.5t-8.5 -21.5t-21.5 -8.5t-21.5 8.5t-8.5 21.5t8.5 21.5t21.5 8.5z" />
<glyph unicode="&#xb8;" horiz-adv-x="581" d="M265 3l25 5q95 -44 95 -119q0 -42 -26 -67.5t-68 -25.5q-59 0 -95 39l10 21q35 -38 83 -38q32 0 51.5 19.5t19.5 53.5q0 32 -21 57.5t-74 54.5z" />
<glyph unicode="&#xb9;" horiz-adv-x="219" d="M132 730h22v-397h-26v299q0 22 2 66q-36 -44 -111 -72v22q30 9 64 32.5t49 49.5z" />
<glyph unicode="&#xba;" horiz-adv-x="363" d="M182 327q-143 0 -143 169t143 169q142 0 142 -169t-142 -169zM182 349q60 0 88 36t28 111t-28 111.5t-88 36.5q-117 0 -117 -148q0 -75 28.5 -111t88.5 -36zM47 219v21h270v-21h-270z" />
<glyph unicode="&#xbb;" horiz-adv-x="400" d="M50 69l142 196l-142 196h34l140 -196l-140 -196h-34zM179 69l142 196l-142 196h34l140 -196l-140 -196h-34z" />
<glyph unicode="&#xbc;" horiz-adv-x="697" d="M132 665h22v-397h-26v299q0 22 2 66q-36 -44 -111 -72v22q30 9 64 32.5t49 49.5zM76 0l467 660h30l-467 -660h-30zM669 133v-21h-79v-116h-24v116h-198v18l190 263h32v-260h79zM395 133h171v188q0 32 1 48h-2l-32 -47z" />
<glyph unicode="&#xbd;" horiz-adv-x="782" d="M132 665h22v-397h-26v299q0 22 2 66q-36 -44 -111 -72v22q30 9 64 32.5t49 49.5zM76 0l467 660h30l-467 -660h-30zM476 -4v21q67 56 109 92q117 96 117 169q0 45 -27 71.5t-74 26.5q-49 0 -78 -29.5t-31 -79.5l-24 7q5 56 40 90t93 34q59 0 93.5 -33t34.5 -87 q0 -82 -127 -184l-92 -75v-1h34h199v-22h-267z" />
<glyph unicode="&#xbe;" horiz-adv-x="811" d="M157 670q56 0 88 -29.5t32 -76.5q0 -75 -74 -95v-2q37 -4 60.5 -30t23.5 -64q0 -50 -36.5 -80.5t-93.5 -30.5q-106 0 -133 92l23 12q18 -82 111 -82q46 0 74 24t28 66q0 84 -105 84q-10 0 -17 -1v21q8 -1 18 -1q42 0 68 23t26 62q0 40 -24.5 63t-67.5 23q-40 0 -65.5 -19 t-32.5 -52l-24 10q11 38 43.5 60.5t77.5 22.5zM190 0l467 660h30l-467 -660h-30zM783 133v-21h-79v-116h-24v116h-198v18l190 263h32v-260h79zM509 133h171v188q0 32 1 48h-2l-32 -47z" />
<glyph unicode="&#xbf;" horiz-adv-x="482" d="M251 442q-13 0 -21.5 8t-8.5 22t8.5 22t21.5 8t21.5 -8t8.5 -22t-8.5 -22t-21.5 -8zM236 -174q-87 0 -141 45.5t-54 123.5q0 84 47.5 136t148.5 78v126h28v-142q-109 -30 -152.5 -74.5t-43.5 -121.5q0 -68 46 -107t122 -39q169 0 190 157l25 -13q-29 -169 -216 -169z" />
<glyph unicode="&#xc0;" horiz-adv-x="600" d="M313 743h-24l-80 150h30zM556 0l-92 224h-329l-91 -224h-29l269 660h32l269 -660h-29zM146 250h308l-134 327l-20 54l-20 -53z" />
<glyph unicode="&#xc1;" horiz-adv-x="600" d="M391 893l-80 -150h-24l73 150h31zM556 0l-92 224h-329l-91 -224h-29l269 660h32l269 -660h-29zM146 250h308l-134 327l-20 54l-20 -53z" />
<glyph unicode="&#xc2;" horiz-adv-x="600" d="M300 868l-98 -125h-28l110 145h32l110 -145h-28zM556 0l-92 224h-329l-91 -224h-29l269 660h32l269 -660h-29zM146 250h308l-134 327l-20 54l-20 -53z" />
<glyph unicode="&#xc3;" horiz-adv-x="600" d="M229 825q-51 0 -67 -70h-24q16 93 92 93q35 0 77 -34t67 -34q51 0 65 69h24q-15 -93 -88 -93q-38 0 -79.5 34.5t-66.5 34.5zM556 0l-92 224h-329l-91 -224h-29l269 660h32l269 -660h-29zM146 250h308l-134 327l-20 54l-20 -53z" />
<glyph unicode="&#xc4;" horiz-adv-x="600" d="M206 755q-13 0 -20.5 8t-7.5 21q0 28 28 28q13 0 21 -7.5t8 -20.5t-8 -21t-21 -8zM392 755q-13 0 -20.5 8t-7.5 21q0 28 28 28q13 0 21 -7.5t8 -20.5t-8 -21t-21 -8zM556 0l-92 224h-329l-91 -224h-29l269 660h32l269 -660h-29zM146 250h308l-134 327l-20 54l-20 -53z " />
<glyph unicode="&#xc5;" horiz-adv-x="600" d="M556 0l-92 224h-329l-91 -224h-29l261 641q-30 7 -49 30t-19 55q0 38 25.5 62.5t64.5 24.5t64.5 -24.5t25.5 -62.5q0 -31 -18 -53.5t-47 -30.5l262 -642h-29zM231 726q0 -28 19.5 -47t47.5 -19t47.5 19t19.5 47t-19.5 47.5t-47.5 19.5t-47.5 -19.5t-19.5 -47.5zM146 250 h308l-134 327l-20 54l-20 -53z" />
<glyph unicode="&#xc6;" horiz-adv-x="898" d="M468 25h396v-25h-424v246h-258l-153 -246h-34l413 660h440v-25h-380v-287h302v-26h-302v-297zM197 272h243v363h-18z" />
<glyph unicode="&#xc7;" horiz-adv-x="656" d="M616 166q-25 -82 -91 -128t-161 -48q62 -39 62 -101q0 -42 -26 -67.5t-68 -25.5q-59 0 -94 39l10 21q34 -38 82 -38q32 0 51.5 19.5t19.5 53.5q0 29 -16.5 52t-57.5 48q-123 10 -196 101t-73 238q0 156 80.5 248t214.5 92q205 0 256 -170l-27 -13q-48 158 -228 158 q-121 0 -194 -85t-73 -230t73 -230t194 -85q89 0 150.5 42t83.5 119z" />
<glyph unicode="&#xc8;" d="M262 893l74 -150h-24l-80 150h30zM101 0v660h442v-25h-414v-286h330v-25h-330v-299h430v-25h-458z" />
<glyph unicode="&#xc9;" d="M382 893h30l-79 -150h-25zM101 0v660h442v-25h-414v-286h330v-25h-330v-299h430v-25h-458z" />
<glyph unicode="&#xca;" d="M448 743h-28l-98 125l-98 -125h-28l110 145h32zM101 0v660h442v-25h-414v-286h330v-25h-330v-299h430v-25h-458z" />
<glyph unicode="&#xcb;" d="M228 812q13 0 21 -7.5t8 -20.5t-8 -21t-21 -8t-20.5 8t-7.5 21q0 28 28 28zM414 812q13 0 21 -7.5t8 -20.5t-8 -21t-21 -8t-20.5 8t-7.5 21q0 28 28 28zM101 0v660h442v-25h-414v-286h330v-25h-330v-299h430v-25h-458z" />
<glyph unicode="&#xcc;" horiz-adv-x="229" d="M53 893l74 -150h-25l-79 150h30zM129 660v-660h-28v660h28z" />
<glyph unicode="&#xcd;" horiz-adv-x="229" d="M177 893h30l-79 -150h-24zM129 660v-660h-28v660h28z" />
<glyph unicode="&#xce;" horiz-adv-x="229" d="M241 743h-28l-98 125l-98 -125h-28l110 145h32zM129 660v-660h-28v660h28z" />
<glyph unicode="&#xcf;" horiz-adv-x="229" d="M51 812q28 0 28 -28q0 -13 -7.5 -21t-20.5 -8t-21 8t-8 21t8 20.5t21 7.5zM179 812q28 0 28 -28q0 -13 -7.5 -21t-20.5 -8t-21 8t-8 21t8 20.5t21 7.5zM129 660v-660h-28v660h28z" />
<glyph unicode="&#xd0;" horiz-adv-x="700" d="M315 660q160 0 243 -82t83 -240q0 -166 -83 -252t-243 -86h-205v321h-101v26h101v313h205zM317 25q145 0 220.5 80t75.5 233q0 145 -75.5 221t-220.5 76h-179v-288h205v-26h-205v-296h179z" />
<glyph unicode="&#xd1;" horiz-adv-x="702" d="M519 849q-15 -93 -88 -93q-38 0 -79.5 34.5t-66.5 34.5q-51 0 -67 -70h-24q16 93 92 93q35 0 77 -34t67 -34q51 0 65 69h24zM601 660v-660h-37l-403 574l-34 55h-1l2 -65v-564h-27v660h36l404 -574l34 -56l-1 66v564h27z" />
<glyph unicode="&#xd2;" horiz-adv-x="720" d="M299 893l73 -150h-24l-80 150h31zM360 670q139 0 220.5 -91.5t81.5 -248.5t-81.5 -248.5t-220.5 -91.5t-220.5 91.5t-81.5 248.5t81.5 248.5t220.5 91.5zM360 645q-126 0 -199.5 -85t-73.5 -230t73.5 -230t199.5 -85t199.5 85t73.5 230t-73.5 230t-199.5 85z" />
<glyph unicode="&#xd3;" horiz-adv-x="720" d="M420 893h31l-80 -150h-24zM360 670q139 0 220.5 -91.5t81.5 -248.5t-81.5 -248.5t-220.5 -91.5t-220.5 91.5t-81.5 248.5t81.5 248.5t220.5 91.5zM360 645q-126 0 -199.5 -85t-73.5 -230t73.5 -230t199.5 -85t199.5 85t73.5 230t-73.5 230t-199.5 85z" />
<glyph unicode="&#xd4;" horiz-adv-x="720" d="M486 743h-28l-98 125l-98 -125h-28l110 145h32zM360 670q139 0 220.5 -91.5t81.5 -248.5t-81.5 -248.5t-220.5 -91.5t-220.5 91.5t-81.5 248.5t81.5 248.5t220.5 91.5zM360 645q-126 0 -199.5 -85t-73.5 -230t73.5 -230t199.5 -85t199.5 85t73.5 230t-73.5 230t-199.5 85 z" />
<glyph unicode="&#xd5;" horiz-adv-x="720" d="M523 849q-15 -93 -88 -93q-38 0 -79.5 34.5t-66.5 34.5q-51 0 -67 -70h-24q16 93 92 93q35 0 77 -34t67 -34q51 0 65 69h24zM360 670q139 0 220.5 -91.5t81.5 -248.5t-81.5 -248.5t-220.5 -91.5t-220.5 91.5t-81.5 248.5t81.5 248.5t220.5 91.5zM360 645 q-126 0 -199.5 -85t-73.5 -230t73.5 -230t199.5 -85t199.5 85t73.5 230t-73.5 230t-199.5 85z" />
<glyph unicode="&#xd6;" horiz-adv-x="720" d="M266 812q13 0 21 -7.5t8 -20.5t-8 -21t-21 -8t-20.5 8t-7.5 21q0 28 28 28zM452 812q13 0 21 -7.5t8 -20.5t-8 -21t-21 -8t-20.5 8t-7.5 21q0 28 28 28zM360 670q139 0 220.5 -91.5t81.5 -248.5t-81.5 -248.5t-220.5 -91.5t-220.5 91.5t-81.5 248.5t81.5 248.5 t220.5 91.5zM360 645q-126 0 -199.5 -85t-73.5 -230t73.5 -230t199.5 -85t199.5 85t73.5 230t-73.5 230t-199.5 85z" />
<glyph unicode="&#xd7;" horiz-adv-x="604" d="M488 479l-166 -166l166 -165l-21 -21l-165 166l-166 -166l-20 21l165 165l-165 166l20 20l166 -165l165 165z" />
<glyph unicode="&#xd8;" horiz-adv-x="720" d="M566 594q96 -91 96 -264q0 -157 -81.5 -248.5t-220.5 -91.5q-111 0 -186 60l-58 -81h-30l70 96q-98 92 -98 265q0 157 81.5 248.5t220.5 91.5q113 0 188 -61l57 80h29zM87 330q0 -156 85 -243l360 500q-69 58 -172 58q-126 0 -199.5 -85t-73.5 -230zM360 15 q126 0 199.5 85t73.5 230q0 155 -83 241l-361 -499q69 -57 171 -57z" />
<glyph unicode="&#xd9;" horiz-adv-x="672" d="M317 888l74 -150h-25l-79 150h30zM587 660v-423q0 -119 -66 -183t-185 -64t-185 64t-66 183v423h28v-419q0 -109 58 -167.5t165 -58.5t165 58.5t58 167.5v419h28z" />
<glyph unicode="&#xda;" horiz-adv-x="672" d="M396 856h31l-80 -150h-24zM587 660v-423q0 -119 -66 -183t-185 -64t-185 64t-66 183v423h28v-419q0 -109 58 -167.5t165 -58.5t165 58.5t58 167.5v419h28z" />
<glyph unicode="&#xdb;" horiz-adv-x="672" d="M462 706h-28l-98 125l-98 -125h-28l110 145h32zM587 660v-423q0 -119 -66 -183t-185 -64t-185 64t-66 183v423h28v-419q0 -109 58 -167.5t165 -58.5t165 58.5t58 167.5v419h28z" />
<glyph unicode="&#xdc;" horiz-adv-x="672" d="M242 775q13 0 21 -7.5t8 -20.5t-8 -21t-21 -8t-20.5 8t-7.5 21q0 28 28 28zM428 775q13 0 21 -7.5t8 -20.5t-8 -21t-21 -8t-20.5 8t-7.5 21q0 28 28 28zM587 660v-423q0 -119 -66 -183t-185 -64t-185 64t-66 183v423h28v-419q0 -109 58 -167.5t165 -58.5t165 58.5 t58 167.5v419h28z" />
<glyph unicode="&#xdd;" horiz-adv-x="523" d="M322 857h31l-80 -150h-24zM508 660l-232 -404v-256h-28v256l-233 404h33l129 -226l85 -148l213 374h33z" />
<glyph unicode="&#xde;" horiz-adv-x="578" d="M300 528q236 0 236 -189q0 -92 -59.5 -140t-176.5 -48h-171v-151h-28v660h28v-132h171zM309 176q198 0 198 163q0 164 -198 164h-180v-327h180z" />
<glyph unicode="&#xdf;" horiz-adv-x="567" d="M337 380q86 -4 132.5 -55t46.5 -136q0 -89 -48 -144t-132 -55q-78 0 -122 37l12 23q45 -36 110 -36q71 0 112 48t41 127q0 88 -51 132.5t-139 44.5h-47v25h45q73 0 117.5 45.5t44.5 123.5q0 71 -43 110.5t-118 39.5q-184 0 -184 -211v-499h-27v512q0 223 213 223 q88 0 138 -47t50 -127q0 -76 -43 -126.5t-108 -53.5v-1z" />
<glyph unicode="&#xe0;" horiz-adv-x="526" d="M265 583h-25l-89 151h31zM486 16q22 0 35 8l-2 -23q-15 -9 -39 -9q-33 0 -55.5 21t-21.5 73v12q-21 -52 -75 -80t-116 -28q-75 0 -118 32.5t-43 92.5q0 106 144 134l208 41v44q0 71 -39.5 111.5t-111.5 40.5q-131 0 -172 -114l-22 15q45 123 195 123q84 0 131 -45 t47 -128v-255q0 -66 55 -66zM216 15q43 0 84 15t72 51.5t31 87.5v97l-192 -38q-131 -25 -131 -111q0 -49 35 -75.5t101 -26.5z" />
<glyph unicode="&#xe1;" horiz-adv-x="526" d="M347 734l-89 -151h-25l83 151h31zM486 16q22 0 35 8l-2 -23q-15 -9 -39 -9q-33 0 -55.5 21t-21.5 73v12q-21 -52 -75 -80t-116 -28q-75 0 -118 32.5t-43 92.5q0 106 144 134l208 41v44q0 71 -39.5 111.5t-111.5 40.5q-131 0 -172 -114l-22 15q45 123 195 123 q84 0 131 -45t47 -128v-255q0 -66 55 -66zM216 15q43 0 84 15t72 51.5t31 87.5v97l-192 -38q-131 -25 -131 -111q0 -49 35 -75.5t101 -26.5z" />
<glyph unicode="&#xe2;" horiz-adv-x="526" d="M248 708l-97 -126h-28l109 146h32l109 -146h-28zM486 16q22 0 35 8l-2 -23q-15 -9 -39 -9q-33 0 -55.5 21t-21.5 73v12q-21 -52 -75 -80t-116 -28q-75 0 -118 32.5t-43 92.5q0 106 144 134l208 41v44q0 71 -39.5 111.5t-111.5 40.5q-131 0 -172 -114l-22 15 q45 123 195 123q84 0 131 -45t47 -128v-255q0 -66 55 -66zM216 15q43 0 84 15t72 51.5t31 87.5v97l-192 -38q-131 -25 -131 -111q0 -49 35 -75.5t101 -26.5z" />
<glyph unicode="&#xe3;" horiz-adv-x="526" d="M177 665q-51 0 -67 -70h-24q16 93 92 93q35 0 77 -34t67 -34q51 0 65 69h24q-15 -93 -88 -93q-38 0 -79.5 34.5t-66.5 34.5zM486 16q22 0 35 8l-2 -23q-15 -9 -39 -9q-33 0 -55.5 21t-21.5 73v12q-21 -52 -75 -80t-116 -28q-75 0 -118 32.5t-43 92.5q0 106 144 134 l208 41v44q0 71 -39.5 111.5t-111.5 40.5q-131 0 -172 -114l-22 15q45 123 195 123q84 0 131 -45t47 -128v-255q0 -66 55 -66zM216 15q43 0 84 15t72 51.5t31 87.5v97l-192 -38q-131 -25 -131 -111q0 -49 35 -75.5t101 -26.5z" />
<glyph unicode="&#xe4;" horiz-adv-x="526" d="M154 595q-13 0 -20.5 8t-7.5 21q0 28 28 28q13 0 21 -7.5t8 -20.5t-8 -21t-21 -8zM340 595q-13 0 -20.5 8t-7.5 21q0 28 28 28q13 0 21 -7.5t8 -20.5t-8 -21t-21 -8zM486 16q22 0 35 8l-2 -23q-15 -9 -39 -9q-33 0 -55.5 21t-21.5 73v12q-21 -52 -75 -80t-116 -28 q-75 0 -118 32.5t-43 92.5q0 106 144 134l208 41v44q0 71 -39.5 111.5t-111.5 40.5q-131 0 -172 -114l-22 15q45 123 195 123q84 0 131 -45t47 -128v-255q0 -66 55 -66zM216 15q43 0 84 15t72 51.5t31 87.5v97l-192 -38q-131 -25 -131 -111q0 -49 35 -75.5t101 -26.5z" />
<glyph unicode="&#xe5;" horiz-adv-x="526" d="M246 575q-39 0 -64.5 24.5t-25.5 62.5t25.5 62.5t64.5 24.5t64.5 -24.5t25.5 -62.5t-25.5 -62.5t-64.5 -24.5zM246 729q-28 0 -47.5 -19.5t-19.5 -47.5t19.5 -47t47.5 -19t47.5 19t19.5 47t-19.5 47.5t-47.5 19.5zM486 16q22 0 35 8l-2 -23q-15 -9 -39 -9q-33 0 -55.5 21 t-21.5 73v12q-21 -52 -75 -80t-116 -28q-75 0 -118 32.5t-43 92.5q0 106 144 134l208 41v44q0 71 -39.5 111.5t-111.5 40.5q-131 0 -172 -114l-22 15q45 123 195 123q84 0 131 -45t47 -128v-255q0 -66 55 -66zM216 15q43 0 84 15t72 51.5t31 87.5v97l-192 -38 q-131 -25 -131 -111q0 -49 35 -75.5t101 -26.5z" />
<glyph unicode="&#xe6;" horiz-adv-x="877" d="M826 263h-396v-17q2 -109 54 -170t147 -61q55 0 101.5 28t70.5 77l22 -12q-26 -55 -78.5 -86.5t-115.5 -31.5q-78 0 -134.5 40.5t-75.5 112.5q-12 -77 -72.5 -115t-135.5 -38q-76 0 -119 32.5t-43 92.5q0 107 143 134l209 39v46q0 70 -40 111t-111 41q-129 0 -172 -114 l-22 15q46 123 194 123q74 0 119.5 -36.5t53.5 -107.5q22 66 76.5 105t122.5 39q94 0 148 -63.5t54 -167.5v-16zM623 486q-78 0 -129.5 -53t-61.5 -145h368q-2 88 -49 143t-128 55zM403 177v87l-192 -36q-131 -24 -131 -111q0 -49 35 -75.5t101 -26.5q74 0 130.5 40.5 t56.5 121.5z" />
<glyph unicode="&#xe7;" horiz-adv-x="531" d="M488 137q-15 -63 -66 -102t-122 -44q62 -40 62 -102q0 -42 -26 -67.5t-68 -25.5q-59 0 -94 39l10 21q34 -38 82 -38q32 0 51.5 19.5t19.5 53.5q0 28 -16.5 51t-57.5 49q-95 6 -153 75.5t-58 183.5q0 119 65 189.5t168 70.5q75 0 127 -35.5t71 -100.5l-25 -13 q-17 60 -62 92.5t-112 32.5q-90 0 -147 -64t-57 -172q0 -109 56 -172t146 -63q69 0 119.5 35.5t60.5 95.5z" />
<glyph unicode="&#xe8;" horiz-adv-x="542" d="M292 583h-25l-89 151h31zM492 266q0 -12 -1 -16h-411q0 -108 57.5 -171.5t148.5 -63.5q60 0 107 27.5t72 77.5l22 -12q-27 -55 -80 -86.5t-120 -31.5q-103 0 -169 70t-66 190q0 119 64 189.5t163 70.5q100 0 156.5 -65.5t56.5 -178.5zM279 486q-82 0 -136.5 -57 t-61.5 -154h384q-1 96 -50 153.5t-136 57.5z" />
<glyph unicode="&#xe9;" horiz-adv-x="542" d="M374 734l-89 -151h-25l83 151h31zM492 266q0 -12 -1 -16h-411q0 -108 57.5 -171.5t148.5 -63.5q60 0 107 27.5t72 77.5l22 -12q-27 -55 -80 -86.5t-120 -31.5q-103 0 -169 70t-66 190q0 119 64 189.5t163 70.5q100 0 156.5 -65.5t56.5 -178.5zM279 486q-82 0 -136.5 -57 t-61.5 -154h384q-1 96 -50 153.5t-136 57.5z" />
<glyph unicode="&#xea;" horiz-adv-x="542" d="M275 708l-97 -126h-28l109 146h32l109 -146h-28zM492 266q0 -12 -1 -16h-411q0 -108 57.5 -171.5t148.5 -63.5q60 0 107 27.5t72 77.5l22 -12q-27 -55 -80 -86.5t-120 -31.5q-103 0 -169 70t-66 190q0 119 64 189.5t163 70.5q100 0 156.5 -65.5t56.5 -178.5zM279 486 q-82 0 -136.5 -57t-61.5 -154h384q-1 96 -50 153.5t-136 57.5z" />
<glyph unicode="&#xeb;" horiz-adv-x="542" d="M181 595q-13 0 -20.5 8t-7.5 21q0 28 28 28q13 0 21 -7.5t8 -20.5t-8 -21t-21 -8zM367 595q-13 0 -20.5 8t-7.5 21q0 28 28 28q13 0 21 -7.5t8 -20.5t-8 -21t-21 -8zM492 266q0 -12 -1 -16h-411q0 -108 57.5 -171.5t148.5 -63.5q60 0 107 27.5t72 77.5l22 -12 q-27 -55 -80 -86.5t-120 -31.5q-103 0 -169 70t-66 190q0 119 64 189.5t163 70.5q100 0 156.5 -65.5t56.5 -178.5zM279 486q-82 0 -136.5 -57t-61.5 -154h384q-1 96 -50 153.5t-136 57.5z" />
<glyph unicode="&#xec;" horiz-adv-x="201" d="M35 734l83 -151h-25l-89 151h31zM115 500v-500h-28v500h28z" />
<glyph unicode="&#xed;" horiz-adv-x="201" d="M169 734h31l-89 -151h-25zM115 500v-500h-28v500h28z" />
<glyph unicode="&#xee;" horiz-adv-x="201" d="M226 582h-28l-97 126l-97 -126h-28l109 146h32zM115 500v-500h-28v500h28z" />
<glyph unicode="&#xef;" horiz-adv-x="201" d="M45 595q-13 0 -21 8t-8 21t8 20.5t21 7.5t21 -7.5t8 -20.5t-8 -21t-21 -8zM156 595q-13 0 -21 8t-8 21t8 20.5t21 7.5t21 -7.5t8 -20.5t-8 -21t-21 -8zM115 500v-500h-28v500h28z" />
<glyph unicode="&#xf0;" horiz-adv-x="585" d="M534 634l-107 -23q91 -122 91 -327q0 -144 -60 -219t-169 -75t-172.5 67t-63.5 180t63 180.5t166 67.5q78 0 131.5 -34.5t75.5 -96.5q-14 150 -91 251l-174 -39l-6 22l165 35q-58 68 -150 107h46q81 -40 133 -101l116 27zM490 245q4 98 -54.5 157t-151.5 59 q-92 0 -147 -61t-55 -163t56 -162t152 -60q92 0 143.5 61.5t56.5 168.5z" />
<glyph unicode="&#xf1;" horiz-adv-x="582" d="M461 689q-15 -93 -88 -93q-38 0 -79.5 34.5t-66.5 34.5q-51 0 -67 -70h-24q16 93 92 93q35 0 77 -34t67 -34q51 0 65 69h24zM314 510q87 0 137.5 -48t50.5 -135v-327h-28v320q0 80 -44 123t-120 43q-82 0 -138.5 -55.5t-56.5 -136.5v-294h-28v500h26l1 -120 q20 59 74 94.5t126 35.5z" />
<glyph unicode="&#xf2;" horiz-adv-x="575" d="M222 731l83 -151h-25l-89 151h31zM288 510q105 0 170 -70t65 -190t-65 -190t-170 -70q-106 0 -171 70t-65 190t65 190t171 70zM288 486q-93 0 -150.5 -63.5t-57.5 -172.5t57.5 -172.5t150.5 -63.5t150 63.5t57 172.5t-57 172.5t-150 63.5z" />
<glyph unicode="&#xf3;" horiz-adv-x="575" d="M356 731h31l-89 -151h-25zM288 510q105 0 170 -70t65 -190t-65 -190t-170 -70q-106 0 -171 70t-65 190t65 190t171 70zM288 486q-93 0 -150.5 -63.5t-57.5 -172.5t57.5 -172.5t150.5 -63.5t150 63.5t57 172.5t-57 172.5t-150 63.5z" />
<glyph unicode="&#xf4;" horiz-adv-x="575" d="M413 579h-28l-97 126l-97 -126h-28l109 146h32zM288 510q105 0 170 -70t65 -190t-65 -190t-170 -70q-106 0 -171 70t-65 190t65 190t171 70zM288 486q-93 0 -150.5 -63.5t-57.5 -172.5t57.5 -172.5t150.5 -63.5t150 63.5t57 172.5t-57 172.5t-150 63.5z" />
<glyph unicode="&#xf5;" horiz-adv-x="575" d="M451 686q-15 -93 -88 -93q-38 0 -79.5 34.5t-66.5 34.5q-51 0 -67 -70h-24q16 93 92 93q35 0 77 -34t67 -34q51 0 65 69h24zM288 510q105 0 170 -70t65 -190t-65 -190t-170 -70q-106 0 -171 70t-65 190t65 190t171 70zM288 486q-93 0 -150.5 -63.5t-57.5 -172.5 t57.5 -172.5t150.5 -63.5t150 63.5t57 172.5t-57 172.5t-150 63.5z" />
<glyph unicode="&#xf6;" horiz-adv-x="575" d="M194 649q13 0 21 -7.5t8 -20.5t-8 -21t-21 -8t-20.5 8t-7.5 21q0 28 28 28zM380 649q13 0 21 -7.5t8 -20.5t-8 -21t-21 -8t-20.5 8t-7.5 21q0 28 28 28zM288 510q105 0 170 -70t65 -190t-65 -190t-170 -70q-106 0 -171 70t-65 190t65 190t171 70zM288 486 q-93 0 -150.5 -63.5t-57.5 -172.5t57.5 -172.5t150.5 -63.5t150 63.5t57 172.5t-57 172.5t-150 63.5z" />
<glyph unicode="&#xf7;" horiz-adv-x="604" d="M302 534q14 0 22 -8t8 -22t-8 -22t-22 -8t-22 8t-8 22t8 22t22 8zM530 329v-26h-456v26h456zM302 160q14 0 22 -8t8 -22t-8 -22t-22 -8t-22 8t-8 22t8 22t22 8z" />
<glyph unicode="&#xf8;" horiz-adv-x="575" d="M454 444q69 -71 69 -194q0 -120 -65 -190t-170 -70q-91 0 -152 52l-56 -72h-28l68 87q-68 70 -68 193q0 120 65 190t171 70q88 0 150 -51l56 71h28zM80 250q0 -109 57 -172l285 361q-55 47 -134 47q-93 0 -150.5 -63.5t-57.5 -172.5zM288 14q93 0 150 63.5t57 172.5 q0 108 -57 173l-285 -361q54 -48 135 -48z" />
<glyph unicode="&#xf9;" horiz-adv-x="574" d="M219 716l83 -151h-25l-89 151h31zM258 -10q-83 0 -130 46t-47 132v332h28v-326q0 -78 40 -118.5t115 -40.5q91 0 143 58.5t52 128.5v298h28v-500h-26l-1 122q-19 -60 -73 -96t-129 -36z" />
<glyph unicode="&#xfa;" horiz-adv-x="574" d="M353 716h31l-89 -151h-25zM258 -10q-83 0 -130 46t-47 132v332h28v-326q0 -78 40 -118.5t115 -40.5q91 0 143 58.5t52 128.5v298h28v-500h-26l-1 122q-19 -60 -73 -96t-129 -36z" />
<glyph unicode="&#xfb;" horiz-adv-x="574" d="M410 564h-28l-97 126l-97 -126h-28l109 146h32zM258 -10q-83 0 -130 46t-47 132v332h28v-326q0 -78 40 -118.5t115 -40.5q91 0 143 58.5t52 128.5v298h28v-500h-26l-1 122q-19 -60 -73 -96t-129 -36z" />
<glyph unicode="&#xfc;" horiz-adv-x="574" d="M191 634q13 0 21 -7.5t8 -20.5t-8 -21t-21 -8t-20.5 8t-7.5 21q0 28 28 28zM377 634q13 0 21 -7.5t8 -20.5t-8 -21t-21 -8t-20.5 8t-7.5 21q0 28 28 28zM258 -10q-83 0 -130 46t-47 132v332h28v-326q0 -78 40 -118.5t115 -40.5q91 0 143 58.5t52 128.5v298h28v-500h-26 l-1 122q-19 -60 -73 -96t-129 -36z" />
<glyph unicode="&#xfd;" horiz-adv-x="488" d="M315 716h31l-89 -151h-25zM467 500l-246 -598q-26 -65 -58 -91t-81 -26q-60 0 -85 33l11 23q24 -32 74 -32q38 0 65 22t49 77l38 91l-55 128l-158 373h32l174 -419l20 -50l21 53l169 416h30z" />
<glyph unicode="&#xfe;" d="M314 510q102 0 164 -69.5t62 -190.5t-62 -190.5t-164 -69.5q-72 0 -125 38t-74 105v-343h-28v940h28v-365q20 68 73.5 106.5t125.5 38.5zM310 15q93 0 147.5 62.5t54.5 172.5t-54.5 173t-147.5 63q-85 0 -140 -64.5t-55 -171.5t54.5 -171t140.5 -64z" />
<glyph unicode="&#xff;" horiz-adv-x="488" d="M153 634q13 0 21 -7.5t8 -20.5t-8 -21t-21 -8t-20.5 8t-7.5 21q0 28 28 28zM339 634q13 0 21 -7.5t8 -20.5t-8 -21t-21 -8t-20.5 8t-7.5 21q0 28 28 28zM467 500l-246 -598q-26 -65 -58 -91t-81 -26q-60 0 -85 33l11 23q24 -32 74 -32q38 0 65 22t49 77l38 91l-55 128 l-158 373h32l174 -419l20 -50l21 53l169 416h30z" />
<glyph unicode="&#x152;" horiz-adv-x="1056" d="M618 25h404v-25h-431v171q-51 -181 -247 -181q-131 0 -208.5 92t-77.5 248t77.5 248t208.5 92q198 0 247 -180v170h414v-25h-387v-286h312v-25h-312v-299zM344 15q126 0 186.5 78t60.5 237t-60.5 237t-186.5 78q-117 0 -187 -85t-70 -230t70 -230t187 -85z" />
<glyph unicode="&#x153;" horiz-adv-x="983" d="M933 266v-16h-412q0 -108 57.5 -171.5t149.5 -63.5q59 0 106.5 28t71.5 77l22 -12q-26 -55 -79.5 -86.5t-120.5 -31.5q-80 0 -139.5 44.5t-80.5 124.5q-22 -81 -80 -125t-140 -44q-106 0 -171 70t-65 190t65 190t171 70q82 0 140 -44t80 -124q21 80 78.5 124t134.5 44 q99 0 155.5 -66t56.5 -178zM288 14q93 0 150 63.5t57 172.5t-57 172.5t-150 63.5t-150.5 -63.5t-57.5 -172.5t57.5 -172.5t150.5 -63.5zM522 275h385q-2 96 -51.5 153.5t-135.5 57.5q-81 0 -136 -57t-62 -154z" />
<glyph unicode="&#x178;" horiz-adv-x="523" d="M168 776q13 0 21 -7.5t8 -20.5t-8 -21t-21 -8t-20.5 8t-7.5 21q0 28 28 28zM354 776q13 0 21 -7.5t8 -20.5t-8 -21t-21 -8t-20.5 8t-7.5 21q0 28 28 28zM508 660l-232 -404v-256h-28v256l-233 404h33l129 -226l85 -148l213 374h33z" />
<glyph unicode="&#x2c6;" horiz-adv-x="541" d="M395 582h-27l-98 126l-97 -126h-28l110 146h31z" />
<glyph unicode="&#x2dc;" horiz-adv-x="541" d="M433 689q-17 -93 -89 -93q-30 0 -55 17t-46.5 34.5t-43.5 17.5q-53 0 -67 -70h-24q15 93 92 93q34 0 76 -34t68 -34q27 0 42 17t23 52h24z" />
<glyph unicode="&#x2000;" horiz-adv-x="446" />
<glyph unicode="&#x2001;" horiz-adv-x="893" />
<glyph unicode="&#x2002;" horiz-adv-x="446" />
<glyph unicode="&#x2003;" horiz-adv-x="893" />
<glyph unicode="&#x2004;" horiz-adv-x="297" />
<glyph unicode="&#x2005;" horiz-adv-x="223" />
<glyph unicode="&#x2006;" horiz-adv-x="148" />
<glyph unicode="&#x2007;" horiz-adv-x="148" />
<glyph unicode="&#x2008;" horiz-adv-x="111" />
<glyph unicode="&#x2009;" horiz-adv-x="178" />
<glyph unicode="&#x200a;" horiz-adv-x="49" />
<glyph unicode="&#x2010;" horiz-adv-x="434" d="M362 283v-29h-290v29h290z" />
<glyph unicode="&#x2011;" horiz-adv-x="434" d="M362 283v-29h-290v29h290z" />
<glyph unicode="&#x2012;" horiz-adv-x="434" d="M362 283v-29h-290v29h290z" />
<glyph unicode="&#x2013;" horiz-adv-x="619" d="M549 282v-27h-478v27h478z" />
<glyph unicode="&#x2014;" horiz-adv-x="953" d="M882 282v-27h-811v27h811z" />
<glyph unicode="&#x2018;" horiz-adv-x="188" d="M95 523q-20 0 -30.5 15t-10.5 40q0 35 17.5 66t50.5 48l18 -15q-32 -13 -51.5 -45t-11.5 -59l2 -1q4 12 19 12q11 0 19.5 -8.5t8.5 -21.5t-9 -22t-22 -9z" />
<glyph unicode="&#x2019;" horiz-adv-x="188" d="M99 690q19 0 29.5 -15t10.5 -39q0 -35 -17.5 -66t-50.5 -48l-18 14q33 13 52 45.5t11 59.5h-2q-5 -11 -19 -11q-11 0 -19 8.5t-8 21.5q0 12 8.5 21t22.5 9z" />
<glyph unicode="&#x201a;" horiz-adv-x="188" d="M99 54q19 0 29.5 -15t10.5 -40q0 -34 -17.5 -65.5t-50.5 -47.5l-18 14q32 13 51.5 45.5t11.5 59.5h-2q-5 -11 -19 -11q-11 0 -19 8.5t-8 21.5q0 12 8.5 21t22.5 9z" />
<glyph unicode="&#x201c;" horiz-adv-x="303" d="M95 523q-20 0 -30.5 15t-10.5 40q0 35 17.5 66t50.5 48l18 -15q-32 -13 -51.5 -45t-11.5 -59l2 -1q4 12 19 12q11 0 19.5 -8.5t8.5 -21.5t-9 -22t-22 -9zM210 523q-20 0 -30.5 15t-10.5 40q0 35 17.5 66t50.5 48l18 -15q-32 -13 -51.5 -45t-11.5 -59l2 -1q4 12 19 12 q11 0 19 -8.5t8 -21.5t-8.5 -22t-21.5 -9z" />
<glyph unicode="&#x201d;" horiz-adv-x="302" d="M99 690q19 0 29.5 -15t10.5 -39q0 -35 -17.5 -66t-50.5 -48l-18 14q33 13 52 45.5t11 59.5h-2q-5 -11 -19 -11q-11 0 -19 8.5t-8 21.5q0 12 8.5 21t22.5 9zM213 690q20 0 30.5 -15t10.5 -39q0 -35 -17.5 -66t-50.5 -48l-18 14q33 13 52 45.5t11 59.5h-2q-5 -11 -19 -11 q-11 0 -19 8.5t-8 21.5q0 12 8.5 21t21.5 9z" />
<glyph unicode="&#x201e;" horiz-adv-x="302" d="M99 54q19 0 29.5 -15t10.5 -40q0 -34 -17.5 -65.5t-50.5 -47.5l-18 14q32 13 51.5 45.5t11.5 59.5h-2q-5 -11 -19 -11q-11 0 -19 8.5t-8 21.5q0 12 8.5 21t22.5 9zM213 54q20 0 30.5 -15t10.5 -40q0 -34 -17.5 -65.5t-50.5 -47.5l-18 14q32 13 51.5 45.5t11.5 59.5h-2 q-5 -11 -19 -11q-11 0 -19 8.5t-8 21.5q0 12 8.5 21t21.5 9z" />
<glyph unicode="&#x2022;" horiz-adv-x="430" d="M215 267q-31 0 -51.5 20.5t-20.5 51.5t20.5 51t51.5 20t51.5 -20t20.5 -51t-20.5 -51.5t-51.5 -20.5z" />
<glyph unicode="&#x2026;" horiz-adv-x="592" d="M99 54q13 0 21.5 -8t8.5 -22t-8.5 -22t-21.5 -8t-21.5 8t-8.5 22t8.5 22t21.5 8zM296 54q14 0 22 -8t8 -22t-8 -22t-22 -8t-22 8t-8 22t8 22t22 8zM493 54q14 0 22.5 -8.5t8.5 -21.5t-8.5 -21.5t-22.5 -8.5q-13 0 -21.5 8.5t-8.5 21.5t8.5 21.5t21.5 8.5z" />
<glyph unicode="&#x202f;" horiz-adv-x="178" />
<glyph unicode="&#x2039;" horiz-adv-x="271" d="M221 461l-142 -196l142 -196h-33l-141 196l141 196h33z" />
<glyph unicode="&#x203a;" horiz-adv-x="271" d="M50 69l142 196l-142 196h34l140 -196l-140 -196h-34z" />
<glyph unicode="&#x205f;" horiz-adv-x="223" />
<glyph unicode="&#x20ac;" horiz-adv-x="658" d="M584 180l25 -11q-22 -86 -83 -132.5t-138 -46.5q-107 0 -174.5 68.5t-84.5 191.5h-89v24h86q-2 36 -2 56t2 54h-86v24h89q17 124 84.5 193t173.5 69q164 0 213 -144l-23 -15q-46 135 -189 135q-94 0 -154.5 -62.5t-76.5 -175.5h284l-12 -24h-275q-2 -34 -2 -54 q0 -29 3 -56h246l-12 -24h-232q17 -112 77 -173.5t155 -61.5q69 0 122 42.5t73 122.5z" />
<glyph unicode="&#x2122;" horiz-adv-x="732" d="M279 660v-21h-122v-309h-26v309h-123v21h271zM632 660h30v-330h-26v248l3 44h-1l-8 -24l-118 -268h-23l-117 268l-8 24h-1l3 -44v-248h-26v330h30l122 -281l9 -23l9 23z" />
<glyph unicode="&#x25fc;" horiz-adv-x="500" d="M0 500h500v-500h-500v500z" />
<glyph unicode="&#xfb03;" horiz-adv-x="844" d="M566 710q-53 0 -82.5 -33.5t-29.5 -94.5v-82h182v-24h-182v-476h-28v476h-282v-476h-28v476h-100v24h100v83q0 71 36.5 111.5t102.5 40.5q51 0 78 -29l-10 -22q-23 26 -67 26q-53 0 -82.5 -33.5t-29.5 -94.5v-82h282v83q0 71 36.5 111.5t102.5 40.5q51 0 78 -29l-10 -22 q-23 26 -67 26zM744 656q13 0 21 -8t8 -21t-8 -21t-21 -8q-30 0 -30 29q0 13 8.5 21t21.5 8zM730 0v500h28v-500h-28z" />
<glyph unicode="&#xfb04;" horiz-adv-x="893" d="M566 710q-53 0 -82.5 -33.5t-29.5 -94.5v-82h182v-24h-182v-476h-28v476h-282v-476h-28v476h-100v24h100v83q0 71 36.5 111.5t102.5 40.5q51 0 78 -29l-10 -22q-23 26 -67 26q-53 0 -82.5 -33.5t-29.5 -94.5v-82h282v83q0 71 36.5 111.5t102.5 40.5q51 0 78 -29l-10 -22 q-23 26 -67 26zM824 15q35 0 60 12l-3 -25q-24 -12 -61 -12q-94 0 -94 120v620h28v-619q0 -51 17 -73.5t53 -22.5z" />
</font>
</defs>
</svg>
